<svg xmlns="http://www.w3.org/2000/svg" xmlns:xlink="http://www.w3.org/1999/xlink" xmlns:fi="http://pattern.flaticon.com/" x="0" y="0" width="400" height="330" viewBox="0 0 1166.6666666666667 962.5"><rect x="0px" y="0px" width="100%" height="100%" opacity="0.85" fill="#ffffff"/><defs><g transform="matrix(0.1171872690320015 0 0 0.1171872690320015 70.00000823973005 24)" id="L1_2"><path d="M325.244,279.179h-39.858v-54.416h39.858c23.68,0,42.877-19.197,42.877-42.877v-74.839  c0-15.027,12.181-27.208,27.208-27.208l0,0c15.027,0,27.208,12.181,27.208,27.208v74.839  C422.537,235.62,378.978,279.179,325.244,279.179z" fill="#80c56e"/><path d="M395.329,79.839L395.329,79.839v103.605c0,36.848-29.871,66.718-66.718,66.718h-43.224v29.017h39.858  c53.733,0,97.293-43.559,97.293-97.293v-74.839C422.537,92.02,410.356,79.839,395.329,79.839z" fill="#66ad66"/><path d="M248.111,204.014h-97.324c-33.868,0-61.324-27.456-61.324-61.324V92.196  c0-14.885,12.066-26.951,26.951-26.951l0,0c14.885,0,26.951,12.066,26.951,26.951v50.494c0,4.099,3.323,7.422,7.422,7.422h97.324  V204.014z" fill="#80c56e"/><path d="M149.42,175.151h98.691v-25.039h-97.324c-4.099,0-7.422-3.323-7.422-7.422V92.196  c0-14.885-12.066-26.951-26.951-26.951l0,0v76.901C116.414,160.374,131.191,175.151,149.42,175.151z" fill="#66ad66"/><path d="M255.741,0L255.741,0c-31.11,0-56.33,25.22-56.33,56.33v338.058h112.66V56.33  C312.071,25.22,286.851,0,255.741,0z" fill="#80c56e"/><path d="M255.741,0L255.741,0c-11.044,0-19.997,28.673-19.997,73.566v320.821h39.994V73.566  C275.738,29.017,266.785,0,255.741,0z" fill="#66ad66"/><path d="M275.738,394.388V73.566C275.738,29.017,266.785,0,255.741,0v394.388H275.738z" fill="#61a361"/><path d="M327.355,512H184.127c-19.158,0-34.689-15.531-34.689-34.689V376.816h212.606v100.496  C362.044,496.469,346.513,512,327.355,512z" fill="#fec37d"/><path d="M309.08,376.816v100.496c0,19.158-15.531,34.689-34.689,34.689h52.964  c19.158,0,34.689-15.531,34.689-34.689V376.816H309.08z" fill="#f9ae5d"/><path d="M374.535,391.372H136.947c-2.913,0-5.275-2.362-5.275-5.275v-18.564c0-2.913,2.362-5.275,5.275-5.275  h237.588c2.913,0,5.275,2.362,5.275,5.275v18.564C379.809,389.011,377.448,391.372,374.535,391.372z" fill="#f2a559"/><path d="M374.535,362.259h-47.007v29.113h47.007c2.913,0,5.275-2.362,5.275-5.275v-18.564  C379.809,364.621,377.448,362.259,374.535,362.259z" fill="#ea8f3d"/></g><g transform="matrix(0.1171872690320015 0 0 0.1171872690320015 231.00001098630673 26)" id="L1_3"><path d="M377.76,165.63c-1.691-3.917-6.238-5.721-10.156-4.031c-39.322,16.975-79.757,51.738-103.878,81.809  V62.436c0-4.267-3.459-7.726-7.726-7.726c-4.267,0-7.726,3.459-7.726,7.726v180.972c-24.121-30.072-64.556-64.835-103.878-81.809  c-3.917-1.693-8.465,0.114-10.156,4.031c-1.691,3.918,0.114,8.465,4.031,10.156c45.093,19.466,91.632,63.616,110.003,94.313v77.265  c0,4.267,3.459,7.726,7.726,7.726c4.267,0,7.726-3.459,7.726-7.726v-77.265c18.37-30.697,64.91-74.847,110.003-94.313  C377.646,174.095,379.451,169.548,377.76,165.63z" fill="#4d984e"/><path d="M411.364,126.173c-3.304,12.386-23.027,34.182-39.044,29.909s-22.262-32.997-18.958-45.383  s18.967-18.963,34.984-14.691C404.363,100.282,414.668,113.787,411.364,126.173z" fill="#feea9e"/><g><path d="M387.971,213.858c3.304-12.386-2.941-41.11-18.958-45.383s-35.74,17.523-39.044,29.909   c-3.304,12.386,7.001,25.891,23.018,30.164C369.004,232.822,384.667,226.245,387.971,213.858z" fill="#f9de85"/><path d="M406.772,202.976c-12.386-3.304-34.182-23.027-29.909-39.044s32.997-22.262,45.383-18.958   c12.386,3.304,18.964,18.967,14.691,34.984S419.158,206.281,406.772,202.976z" fill="#f9de85"/></g><path d="M319.087,179.584c12.386,3.304,41.11-2.941,45.383-18.958c4.273-16.017-17.523-35.74-29.909-39.044  c-12.386-3.304-25.891,7.001-30.164,23.018S306.701,176.279,319.087,179.584z" fill="#feea9e"/><circle cx="370" cy="162" r="21" fill="#f2a559"/><path d="M100.636,126.173c3.304,12.386,23.027,34.182,39.044,29.909s22.262-32.997,18.958-45.383  s-18.967-18.963-34.984-14.691C107.637,100.282,97.332,113.787,100.636,126.173z" fill="#feea9e"/><path d="M124.029,213.858c-3.304-12.386,2.941-41.11,18.958-45.383s35.74,17.523,39.044,29.909  s-7.001,25.891-23.018,30.164C142.996,232.822,127.333,226.245,124.029,213.858z" fill="#f9de85"/><path d="M105.228,202.976c12.386-3.304,34.182-23.027,29.909-39.044s-32.997-22.262-45.383-18.958  c-12.386,3.304-18.963,18.967-14.691,34.984C79.337,195.975,92.842,206.281,105.228,202.976z" fill="#feea9e"/><path d="M192.913,179.584c-12.386,3.304-41.11-2.941-45.383-18.958s17.523-35.74,29.909-39.044  c12.386-3.304,25.891,7.001,30.164,23.018S205.299,176.279,192.913,179.584z" fill="#f9de85"/><circle cx="141" cy="162" r="21" fill="#f2a559"/><path d="M286.015,23.212c0,12.82-13.438,38.963-30.015,38.963s-30.015-26.143-30.015-38.963S239.423,0,256,0  S286.015,10.392,286.015,23.212z" fill="#feea9e"/><g><path d="M286.015,113.963C286.015,101.143,272.577,75,256,75s-30.015,26.143-30.015,38.963   s13.438,23.212,30.015,23.212S286.015,126.783,286.015,113.963z" fill="#f9de85"/><path d="M301.376,98.603c-12.82,0-38.963-13.438-38.963-30.015s26.143-30.015,38.963-30.015   c12.819,0,23.212,13.438,23.212,30.015S314.195,98.603,301.376,98.603z" fill="#f9de85"/></g><path d="M210.624,98.603c12.82,0,38.963-13.438,38.963-30.015s-26.143-30.015-38.963-30.015  s-23.212,13.438-23.212,30.015S197.805,98.603,210.624,98.603z" fill="#feea9e"/><circle cx="256" cy="68" r="21" fill="#f2a559"/><path d="M251.674,343.045l83.653-99.519c0,0-0.693,58.28-36.56,94.148S251.674,343.045,251.674,343.045z" fill="#80c56e"/><g><path d="M335.327,243.526c0,0-18.44,58.065-75.355,109.369c7.09,4.161,19.302,4.271,38.795-15.222   C334.634,301.806,335.327,243.526,335.327,243.526z" fill="#66ad66"/><path d="M257.747,343.045l-83.653-99.519c0,0,0.693,58.28,36.56,94.148S257.747,343.045,257.747,343.045z" fill="#66ad66"/></g><path d="M250.185,352.44c-55.78-39.544-76.091-108.915-76.091-108.915s0.692,58.28,36.56,94.148  C230.837,357.856,243.217,357.026,250.185,352.44z" fill="#80c56e"/><path d="M304.919,512h-97.837c-5.992,0-11.202-4.108-12.6-9.935l-37.11-154.702h197.256l-37.11,154.702  C316.121,507.892,310.91,512,304.919,512z" fill="#fec37d"/><path d="M306.207,347.364l-37.11,154.702c-1.398,5.827-6.608,9.935-12.6,9.935h48.421  c5.992,0,11.202-4.108,12.6-9.935l37.11-154.702L306.207,347.364L306.207,347.364z" fill="#f9ae5d"/><path d="M365.277,373.06H146.723c-4.29,0-7.768-3.478-7.768-7.768v-19.767c0-4.29,3.478-7.768,7.768-7.768  h218.554c4.29,0,7.768,3.478,7.768,7.768v19.767C373.045,369.582,369.567,373.06,365.277,373.06z" fill="#f2a559"/><path d="M365.277,337.758h-44.589v35.302h44.589c4.29,0,7.768-3.478,7.768-7.767v-19.767  C373.045,341.235,369.567,337.758,365.277,337.758z" fill="#ea8f3d"/><path d="M335.043,429.011 176.957,429.011 180.664,444.463 331.336,444.463z" fill="#f2a559"/><path d="M282.915,444.463 331.336,444.463 335.043,429.011 286.622,429.011z" fill="#ea8f3d"/></g><g transform="matrix(0.1171875 0 0 0.1171875 72 193)" id="L1_4"><path d="M405.439,221.126c0.385,0.118,0.579,0.533,0.422,0.904c-2.603,6.166-23.1,52.416-59.086,69.225  c-44.695,20.876-63.228-12.644-63.228-12.644s-13.811-35.725,30.884-56.602C350.418,205.2,399.04,219.165,405.439,221.126z" fill="#80c56e"/><path d="M346.775,291.254c35.987-16.809,56.484-63.059,59.086-69.224c0.156-0.371-0.037-0.786-0.422-0.904  L283.547,278.61C283.548,278.611,302.08,312.131,346.775,291.254z" fill="#66ad66"/><path d="M106.561,221.126c-0.385,0.118-0.579,0.533-0.422,0.904c2.603,6.166,23.1,52.416,59.086,69.225  c44.695,20.876,63.228-12.644,63.228-12.644s13.811-35.725-30.884-56.602C161.582,205.2,112.96,219.165,106.561,221.126z" fill="#80c56e"/><path d="M165.225,291.254c44.695,20.877,63.228-12.644,63.228-12.644L106.17,221.453  c-0.092,0.171-0.114,0.378-0.03,0.577C108.741,228.196,129.238,274.445,165.225,291.254z" fill="#66ad66"/><path d="M263.726,279.464V130.662c0-4.267-3.459-7.726-7.726-7.726s-7.726,3.459-7.726,7.726v148.801  c-30.724-13.474-140.372-61.293-141.925-57.969c-1.614,3.456,116.81,62.26,141.925,74.681v60.35c0,4.267,3.459,7.726,7.726,7.726  s7.726-3.459,7.726-7.726v-60.35c25.114-12.421,143.539-71.224,141.925-74.681C404.099,218.171,294.45,265.99,263.726,279.464z" fill="#4d984e"/><g><path d="M278.24,25.829c0,20.048-9.957,57.706-22.24,57.706s-22.24-37.659-22.24-57.706S243.717,0,256,0   C268.283,0,278.24,5.782,278.24,25.829z" fill="#fc5e71"/><path d="M278.24,175.726c0-20.048-9.957-57.706-22.24-57.706s-22.24,37.659-22.24,57.706   s9.957,25.829,22.24,25.829S278.24,195.774,278.24,175.726z" fill="#fc5e71"/></g><g><path d="M324.723,63.507c-14.176,14.176-47.845,33.764-56.53,25.078s10.903-42.355,25.078-56.53   c14.176-14.176,25.305-11.223,33.99-2.538C335.946,38.202,338.898,49.331,324.723,63.507z" fill="#fd747f"/><path d="M218.73,169.5c14.176-14.176,33.764-47.845,25.078-56.53c-8.685-8.685-42.355,10.903-56.53,25.078   c-14.176,14.176-11.223,25.305-2.538,33.99C193.425,180.723,204.554,183.676,218.73,169.5z" fill="#fd747f"/></g><g><path d="M330.948,123.018c-20.048,0-57.706-9.957-57.706-22.24s37.659-22.24,57.706-22.24   s25.829,9.957,25.829,22.24S350.996,123.018,330.948,123.018z" fill="#fc5e71"/><path d="M181.052,123.018c20.048,0,57.706-9.957,57.706-22.24s-37.659-22.24-57.706-22.24   s-25.829,9.957-25.829,22.24S161.004,123.018,181.052,123.018z" fill="#fc5e71"/></g><g><path d="M293.27,169.5c-14.176-14.176-33.764-47.845-25.078-56.53s42.355,10.903,56.53,25.078   c14.176,14.176,11.223,25.305,2.538,33.99C318.575,180.723,307.446,183.676,293.27,169.5z" fill="#fd747f"/><path d="M187.277,63.507c14.176,14.176,47.845,33.764,56.53,25.078c8.685-8.685-10.903-42.355-25.078-56.53   s-25.305-11.223-33.99-2.538C176.054,38.202,173.102,49.331,187.277,63.507z" fill="#fd747f"/></g><g><circle cx="256" cy="100" r="26" fill="#fec37d"/><path d="M314.404,512H197.596c-4.805,0-8.944-3.387-9.895-8.097l-30.946-153.309h198.489l-30.946,153.309   C323.348,508.613,319.209,512,314.404,512z" fill="#fec37d"/></g><path d="M303.735,350.594l-30.946,153.309c-0.951,4.71-5.09,8.097-9.895,8.097h51.509  c4.805,0,8.944-3.387,9.895-8.097l30.946-153.309H303.735z" fill="#f9ae5d"/><path d="M370.297,377.907H141.703c-2.916,0-5.279-2.363-5.279-5.279v-27.36c0-2.916,2.364-5.279,5.279-5.279  h228.594c2.916,0,5.279,2.363,5.279,5.279v27.36C375.576,375.544,373.213,377.907,370.297,377.907z" fill="#f2a559"/><path d="M370.297,339.989H323.22v37.918h47.077c2.916,0,5.279-2.363,5.279-5.279v-27.36  C375.576,342.353,373.213,339.989,370.297,339.989z" fill="#ea8f3d"/><path d="M336.297,444.463 339.416,429.011 172.584,429.011 175.703,444.463z" fill="#f2a559"/><path d="M284.788,444.463 336.297,444.463 337.627,437.875 339.416,429.011 287.907,429.011z" fill="#ea8f3d"/></g><g transform="matrix(0.11718795448541641 0 0 0.11718795448541641 229.0000018453669 195)" id="L1_5"><g><path d="M394.086,55.784c-27.475-15.661-62.444-6.085-78.105,21.39   c-18.425,32.322-20.133,80.706-18.839,112.34c-8.394-2.393-17.255-3.675-26.417-3.675c-8.484,0-16.709,1.104-24.546,3.167   c2.347-40.505,2.268-109.696-20.556-151.242c-19.359-35.241-63.621-48.116-98.862-28.756c-35.24,19.357-48.115,63.619-28.756,98.86   c23.872,43.456,79.081,78.744,114.173,97.851c-22.866,17.578-37.608,45.202-37.608,76.273c0,53.105,43.05,162.054,96.155,162.054   s96.155-108.949,96.155-162.054c0-30.907-14.585-58.404-37.244-75.995c28.282-15.803,68.858-42.317,85.84-72.109   C431.137,106.414,421.561,71.445,394.086,55.784z" fill="#80c56e"/><path d="M297.142,189.513c-8.394-2.393-17.255-3.675-26.417-3.675c-8.484,0-16.709,1.104-24.546,3.167   c-18.492,4.839-34.002,16.715-34.002,16.715c-22.866,17.578-37.608,45.202-37.608,76.273c0,53.105,43.05,162.054,96.155,162.054   s96.155-108.949,96.155-162.054c0-30.907-14.585-58.404-37.244-75.995C306.84,190.71,297.142,189.513,297.142,189.513z" fill="#80c56e"/></g><g><path d="M234.169,57.428c-2.652-7.01-5.144-12.957-7.315-17.309c-0.408-0.789-0.807-1.587-1.23-2.357   c-0.585-1.065-1.195-2.107-1.824-3.131c-0.21-0.342-0.435-0.67-0.65-1.007c-0.429-0.672-0.857-1.345-1.304-1.999   c-0.27-0.394-0.554-0.775-0.83-1.163c-0.412-0.577-0.822-1.155-1.248-1.716c-0.308-0.406-0.628-0.8-0.943-1.198   c-0.414-0.522-0.827-1.045-1.253-1.553c-0.338-0.403-0.685-0.796-1.03-1.19c-0.422-0.482-0.846-0.963-1.279-1.432   c-0.364-0.394-0.735-0.779-1.106-1.163c-0.432-0.448-0.868-0.892-1.31-1.327c-0.388-0.381-0.78-0.756-1.175-1.127   c-0.442-0.416-0.889-0.826-1.341-1.229c-0.411-0.367-0.825-0.73-1.243-1.087c-0.45-0.384-0.905-0.759-1.362-1.131   c-0.435-0.353-0.872-0.704-1.314-1.047c-0.454-0.352-0.915-0.693-1.377-1.033c-0.46-0.339-0.919-0.678-1.386-1.005   c-0.454-0.318-0.915-0.624-1.376-0.931c-0.488-0.326-0.975-0.654-1.471-0.967c-0.444-0.281-0.895-0.547-1.344-0.818   c-0.525-0.316-1.047-0.637-1.579-0.939c-0.409-0.233-0.826-0.45-1.239-0.674c-0.584-0.317-1.165-0.64-1.756-0.941   c-0.282-0.143-0.569-0.273-0.853-0.412c-2.549-1.254-5.163-2.364-7.834-3.311c-0.129-0.046-0.255-0.097-0.384-0.142   c-0.8-0.279-1.607-0.533-2.416-0.783c-0.255-0.079-0.507-0.165-0.763-0.242c-0.776-0.231-1.559-0.441-2.342-0.646   c-0.291-0.077-0.581-0.159-0.873-0.232c-0.775-0.193-1.555-0.366-2.336-0.534c-0.304-0.065-0.606-0.134-0.911-0.195   c-0.783-0.158-1.57-0.298-2.358-0.43c-0.303-0.051-0.606-0.103-0.91-0.15c-0.799-0.123-1.6-0.231-2.404-0.328   c-0.292-0.035-0.583-0.07-0.876-0.102c-0.821-0.089-1.643-0.164-2.468-0.226c-0.271-0.02-0.542-0.038-0.814-0.055   c-0.849-0.054-1.698-0.094-2.55-0.118c-0.24-0.007-0.48-0.01-0.72-0.014c-0.884-0.016-1.77-0.02-2.656-0.004   c-0.193,0.004-0.386,0.012-0.578,0.017c-0.936,0.025-1.872,0.062-2.809,0.123c-0.112,0.007-0.223,0.018-0.335,0.026   c-7.579,0.531-15.166,2.255-22.481,5.263c13.582,5.555,75.276,49.536,97.48,188.822c4.418-2.031,9.336-3.926,14.488-5.274   C248.186,154.375,248.406,98.792,234.169,57.428z" fill="#66ad66"/><path d="M329.636,205.998c-22.796-15.288-32.494-16.485-32.494-16.485   c-8.394-2.393-17.255-3.675-26.417-3.675c-0.89,0-1.775,0.019-2.658,0.043c2.695,1.724,5.629,3.695,8.831,5.97   c22.659,18.636,37.244,47.768,37.244,80.511c0,46.719-29.688,134.228-70.166,162.569c8.492,5.778,17.466,9.116,26.749,9.116   c53.105,0,96.155-108.949,96.155-162.054C366.88,251.086,352.295,223.589,329.636,205.998z" fill="#66ad66"/><path d="M243.976,434.931c21.02-14.717,39.127-45.39,51.682-78.02   c-16.734,28.58-38.349,50.114-61.955,50.114c-6.863,0-13.557-1.832-20.013-5.116c10.259,15.763,22.078,28.665,34.883,35.877   C247.027,436.914,245.493,435.963,243.976,434.931z" fill="#66ad66"/><path d="M394.086,55.784c-3.517-2.005-7.158-3.59-10.865-4.783c4.732,14.746,15.134,77.499-70.622,144.716   c4.568,2.397,10.211,5.704,17.037,10.281c28.282-15.804,68.858-42.317,85.84-72.109C431.137,106.414,421.561,71.445,394.086,55.784   z" fill="#66ad66"/></g><path d="M353.927,511.998H196.912c-8.826,0-16.817-6.663-18.597-15.609l-27.113-124.144h248.436  l-27.113,124.144C370.744,505.335,362.753,511.998,353.927,511.998z" fill="#fec37d"/><path d="M347.098,372.245l-27.113,124.144c-1.78,8.946-9.771,15.609-18.597,15.609h52.539  c8.825,0,16.817-6.663,18.597-15.609l27.113-124.144H347.098z" fill="#f9ae5d"/><path d="M412.608,392.136H138.231c-2.778,0-5.031-2.252-5.031-5.031v-19.218c0-2.778,2.252-5.031,5.031-5.031  h274.376c2.778,0,5.031,2.252,5.031,5.031v19.218C417.639,389.883,415.386,392.136,412.608,392.136z" fill="#f2a559"/><path d="M412.608,362.856h-47.325v29.28h47.325c2.779,0,5.031-2.252,5.031-5.031v-19.218  C417.638,365.108,415.386,362.856,412.608,362.856z" fill="#ea8f3d"/><g><path d="M220.335,243.731c-1.106-4.122-5.344-6.566-9.465-5.46c-4.121,1.106-6.566,5.344-5.46,9.465   l2.109,7.86c0.926,3.451,4.047,5.726,7.457,5.726c0.663,0,1.337-0.086,2.008-0.266c4.121-1.106,6.566-5.344,5.46-9.465   L220.335,243.731z" fill="#4d984e"/><path d="M220.335,140.332c-1.105-4.122-5.341-6.566-9.465-5.46c-4.121,1.106-6.566,5.343-5.46,9.465   l2.109,7.861c0.926,3.451,4.047,5.726,7.457,5.726c0.663,0,1.337-0.086,2.008-0.266c4.121-1.106,6.566-5.343,5.46-9.465   L220.335,140.332z" fill="#4d984e"/><path d="M347.784,140.333c-1.105-4.121-5.341-6.562-9.465-5.461c-4.122,1.106-6.566,5.343-5.461,9.465   l2.109,7.861c0.926,3.451,4.047,5.726,7.458,5.726c0.663,0,1.336-0.086,2.007-0.266c4.122-1.105,6.566-5.343,5.461-9.464   L347.784,140.333z" fill="#4d984e"/><path d="M203.606,78.026l-2.109-7.86c-1.105-4.122-5.344-6.565-9.464-5.46   c-4.121,1.106-6.566,5.343-5.46,9.464l2.109,7.86c0.926,3.451,4.047,5.726,7.457,5.726c0.663,0,1.337-0.086,2.007-0.266   C202.267,86.384,204.712,82.147,203.606,78.026z" fill="#4d984e"/><path d="M333.912,100.175c0.927,3.451,4.047,5.726,7.458,5.726c0.663,0,1.337-0.086,2.007-0.266   c4.122-1.106,6.566-5.343,5.461-9.464l-2.109-7.86c-1.107-4.122-5.347-6.565-9.465-5.46c-4.122,1.106-6.566,5.343-5.461,9.464   L333.912,100.175z" fill="#4d984e"/><path d="M136.417,74.095c-1.106-4.122-5.345-6.566-9.465-5.46c-4.121,1.106-6.566,5.344-5.46,9.465   l2.109,7.86c0.926,3.451,4.047,5.726,7.457,5.726c0.663,0,1.337-0.086,2.008-0.266c4.121-1.106,6.566-5.344,5.46-9.465   L136.417,74.095z" fill="#4d984e"/><path d="M270.455,280.719c-1.105-4.122-5.344-6.566-9.464-5.46c-4.121,1.106-6.566,5.343-5.46,9.464   l2.109,7.86c0.926,3.451,4.047,5.726,7.457,5.726c0.663,0,1.337-0.086,2.007-0.266c4.121-1.106,6.566-5.343,5.46-9.464   L270.455,280.719z" fill="#4d984e"/><path d="M243.71,329.359c-1.106-4.122-5.345-6.563-9.465-5.461c-4.121,1.106-6.566,5.343-5.46,9.465   l2.108,7.861c0.926,3.451,4.047,5.726,7.458,5.726c0.663,0,1.337-0.086,2.007-0.266c4.121-1.105,6.566-5.343,5.46-9.464   L243.71,329.359z" fill="#4d984e"/><path d="M316.854,235.872c-1.107-4.122-5.346-6.564-9.465-5.46c-4.122,1.106-6.566,5.343-5.461,9.464   l2.109,7.86c0.927,3.451,4.047,5.726,7.458,5.726c0.663,0,1.337-0.086,2.007-0.266c4.122-1.106,6.566-5.343,5.461-9.464   L316.854,235.872z" fill="#4d984e"/><path d="M259.825,237.249c3.013,0,5.877-1.774,7.122-4.725l3.164-7.498   c1.659-3.931-0.184-8.463-4.115-10.122s-8.463,0.184-10.122,4.115l-3.164,7.498c-1.659,3.931,0.184,8.463,4.115,10.122   C257.806,237.053,258.824,237.249,259.825,237.249z" fill="#4d984e"/><path d="M165.666,114.573c-3.931-1.658-8.463,0.184-10.122,4.115l-3.163,7.498   c-1.659,3.932,0.184,8.464,4.115,10.122c0.981,0.414,1.998,0.61,3,0.61c3.014,0,5.877-1.774,7.122-4.725l3.163-7.498   C171.44,120.764,169.598,116.231,165.666,114.573z" fill="#4d984e"/><path d="M386.85,98.988c-3.931-1.66-8.464,0.183-10.123,4.115l-3.164,7.498   c-1.659,3.932,0.183,8.464,4.115,10.123c0.981,0.414,1.999,0.61,3.001,0.61c3.013,0,5.876-1.774,7.122-4.724l3.164-7.498   C392.624,105.179,390.782,100.647,386.85,98.988z" fill="#4d984e"/><path d="M165.666,26.708c-3.931-1.659-8.463,0.184-10.122,4.115l-3.163,7.498   c-1.659,3.932,0.184,8.463,4.115,10.122c0.981,0.414,1.998,0.61,3,0.61c3.014,0,5.877-1.774,7.122-4.725l3.163-7.498   C171.44,32.899,169.598,28.367,165.666,26.708z" fill="#4d984e"/><path d="M303.381,313.059c-3.931-1.66-8.464,0.183-10.122,4.116l-3.163,7.499   c-1.659,3.932,0.184,8.463,4.116,10.122c0.981,0.414,1.998,0.61,3,0.61c3.013,0,5.877-1.774,7.122-4.725l3.163-7.499   C309.156,319.249,307.313,314.717,303.381,313.059z" fill="#4d984e"/><path d="M336.846,280.222c-3.933-1.659-8.464,0.184-10.122,4.116l-3.163,7.498   c-1.659,3.932,0.184,8.463,4.116,10.122c0.981,0.414,1.998,0.61,3,0.61c3.013,0,5.877-1.775,7.122-4.725l3.163-7.498   C342.621,286.412,340.778,281.881,336.846,280.222z" fill="#4d984e"/><path d="M210.347,299.358c-3.932-1.658-8.463,0.184-10.122,4.115l-3.163,7.498   c-1.659,3.932,0.184,8.463,4.115,10.122c0.981,0.414,1.998,0.61,3,0.61c3.014,0,5.877-1.774,7.122-4.725l3.163-7.498   C216.121,305.549,214.279,301.017,210.347,299.358z" fill="#4d984e"/></g><path d="M388.585,422.85l-39.247,24.226l-32.895-20.305c-2.487-1.536-5.63-1.536-8.117,0l-32.891,20.305  l-32.891-20.305c-2.488-1.536-5.63-1.536-8.118,0l-32.89,20.305l-39.289-24.257l4.584,20.991l30.646,18.92  c2.488,1.536,5.63,1.535,8.118,0l32.89-20.305l32.891,20.305c1.244,0.768,2.651,1.152,4.059,1.152c1.407,0,2.814-0.384,4.059-1.152  l32.89-20.305l32.895,20.305c2.487,1.536,5.63,1.536,8.117,0l30.605-18.891L388.585,422.85z" fill="#f2a559"/><path d="M388.585,422.85l-39.247,24.226l-16.375-10.108l-3.495,16.002l15.812,9.76  c2.487,1.536,5.63,1.536,8.117,0l30.605-18.891L388.585,422.85z" fill="#ea8f3d"/></g></defs><g fi:class="KUsePattern" opacity="0.75"><pattern id="pattern_L1_4" width="350" height="350" patternUnits="userSpaceOnUse"><use xlink:href="#L1_4" x="-350" y="-350"/><use xlink:href="#L1_4" x="0" y="-350"/><use xlink:href="#L1_4" x="350" y="-350"/><use xlink:href="#L1_4" x="-350" y="0"/><use xlink:href="#L1_4" x="0" y="0"/><use xlink:href="#L1_4" x="350" y="0"/><use xlink:href="#L1_4" x="-350" y="350"/><use xlink:href="#L1_4" x="0" y="350"/><use xlink:href="#L1_4" x="350" y="350"/></pattern><rect x="0" y="0" width="100%" height="100%" fill="url(#pattern_L1_4)"/></g><g fi:class="KUsePattern" opacity="0.75"><pattern id="pattern_L1_5" width="350" height="350" patternUnits="userSpaceOnUse"><use xlink:href="#L1_5" x="-350" y="-350"/><use xlink:href="#L1_5" x="0" y="-350"/><use xlink:href="#L1_5" x="350" y="-350"/><use xlink:href="#L1_5" x="-350" y="0"/><use xlink:href="#L1_5" x="0" y="0"/><use xlink:href="#L1_5" x="350" y="0"/><use xlink:href="#L1_5" x="-350" y="350"/><use xlink:href="#L1_5" x="0" y="350"/><use xlink:href="#L1_5" x="350" y="350"/></pattern><rect x="0" y="0" width="100%" height="100%" fill="url(#pattern_L1_5)"/></g><g fi:class="KUsePattern" opacity="0.75"><pattern id="pattern_L1_3" width="350" height="350" patternUnits="userSpaceOnUse"><use xlink:href="#L1_3" x="-350" y="-350"/><use xlink:href="#L1_3" x="0" y="-350"/><use xlink:href="#L1_3" x="350" y="-350"/><use xlink:href="#L1_3" x="-350" y="0"/><use xlink:href="#L1_3" x="0" y="0"/><use xlink:href="#L1_3" x="350" y="0"/><use xlink:href="#L1_3" x="-350" y="350"/><use xlink:href="#L1_3" x="0" y="350"/><use xlink:href="#L1_3" x="350" y="350"/></pattern><rect x="0" y="0" width="100%" height="100%" fill="url(#pattern_L1_3)"/></g><g fi:class="KUsePattern" opacity="0.75"><pattern id="pattern_L1_2" width="350" height="350" patternUnits="userSpaceOnUse"><use xlink:href="#L1_2" x="-350" y="-350"/><use xlink:href="#L1_2" x="0" y="-350"/><use xlink:href="#L1_2" x="350" y="-350"/><use xlink:href="#L1_2" x="-350" y="0"/><use xlink:href="#L1_2" x="0" y="0"/><use xlink:href="#L1_2" x="350" y="0"/><use xlink:href="#L1_2" x="-350" y="350"/><use xlink:href="#L1_2" x="0" y="350"/><use xlink:href="#L1_2" x="350" y="350"/></pattern><rect x="0" y="0" width="100%" height="100%" fill="url(#pattern_L1_2)"/></g></svg>